<mxfile host="app.diagrams.net" modified="2021-08-23T17:52:34.756Z" agent="5.0 (Windows NT 10.0; Win64; x64) AppleWebKit/537.36 (KHTML, like Gecko) Chrome/92.0.4515.131 Safari/537.36 Edg/92.0.902.73" etag="ivvqEn_UNZ2SvGrO6zL4" version="14.9.7" type="github">
  <diagram id="C5RBs43oDa-KdzZeNtuy" name="Page-1">
    <mxGraphModel dx="1038" dy="547" grid="1" gridSize="10" guides="1" tooltips="1" connect="1" arrows="1" fold="1" page="1" pageScale="1" pageWidth="827" pageHeight="1169" math="0" shadow="0">
      <root>
        <mxCell id="WIyWlLk6GJQsqaUBKTNV-0" />
        <mxCell id="WIyWlLk6GJQsqaUBKTNV-1" parent="WIyWlLk6GJQsqaUBKTNV-0" />
        <mxCell id="WIyWlLk6GJQsqaUBKTNV-3" value="Orca Listener" style="rounded=1;whiteSpace=wrap;html=1;fontSize=12;glass=0;strokeWidth=1;shadow=0;" parent="WIyWlLk6GJQsqaUBKTNV-1" vertex="1">
          <mxGeometry x="10" y="200" width="120" height="40" as="geometry" />
        </mxCell>
        <mxCell id="4ZDuckEpWmORl7aThJbx-0" value="orca&amp;nbsp;" style="ellipse;whiteSpace=wrap;html=1;" vertex="1" parent="WIyWlLk6GJQsqaUBKTNV-1">
          <mxGeometry x="10" y="60" width="120" height="80" as="geometry" />
        </mxCell>
        <mxCell id="WIyWlLk6GJQsqaUBKTNV-11" value="orchestrator" style="rounded=1;whiteSpace=wrap;html=1;fontSize=12;glass=0;strokeWidth=1;shadow=1;" parent="WIyWlLk6GJQsqaUBKTNV-1" vertex="1">
          <mxGeometry x="490" y="60" width="120" height="40" as="geometry" />
        </mxCell>
        <mxCell id="4ZDuckEpWmORl7aThJbx-9" value="1" style="edgeStyle=orthogonalEdgeStyle;rounded=0;orthogonalLoop=1;jettySize=auto;html=1;exitX=0.5;exitY=1;exitDx=0;exitDy=0;shadow=1;" edge="1" parent="WIyWlLk6GJQsqaUBKTNV-1" source="4ZDuckEpWmORl7aThJbx-0" target="WIyWlLk6GJQsqaUBKTNV-3">
          <mxGeometry relative="1" as="geometry" />
        </mxCell>
        <mxCell id="4ZDuckEpWmORl7aThJbx-3" value="" style="aspect=fixed;html=1;points=[];align=center;image;fontSize=12;image=img/lib/azure2/iot/Event_Hubs.svg;shadow=1;" vertex="1" parent="WIyWlLk6GJQsqaUBKTNV-1">
          <mxGeometry x="218.25" y="50" width="67" height="60" as="geometry" />
        </mxCell>
        <mxCell id="4ZDuckEpWmORl7aThJbx-4" value="Ingestion service" style="rounded=1;whiteSpace=wrap;html=1;shadow=1;" vertex="1" parent="WIyWlLk6GJQsqaUBKTNV-1">
          <mxGeometry x="190" y="200" width="123.5" height="45" as="geometry" />
        </mxCell>
        <mxCell id="4ZDuckEpWmORl7aThJbx-6" value="slice notification" style="text;html=1;align=center;verticalAlign=middle;resizable=0;points=[];autosize=1;strokeColor=none;shadow=1;" vertex="1" parent="WIyWlLk6GJQsqaUBKTNV-1">
          <mxGeometry x="201.75" y="110" width="100" height="20" as="geometry" />
        </mxCell>
        <mxCell id="4ZDuckEpWmORl7aThJbx-10" value="" style="endArrow=classic;html=1;exitX=1;exitY=0.5;exitDx=0;exitDy=0;entryX=0;entryY=0.5;entryDx=0;entryDy=0;entryPerimeter=0;shadow=1;" edge="1" parent="WIyWlLk6GJQsqaUBKTNV-1" source="4ZDuckEpWmORl7aThJbx-4" target="4ZDuckEpWmORl7aThJbx-13">
          <mxGeometry width="50" height="50" relative="1" as="geometry">
            <mxPoint x="390" y="310" as="sourcePoint" />
            <mxPoint x="440" y="260" as="targetPoint" />
            <Array as="points">
              <mxPoint x="360" y="223" />
              <mxPoint x="360" y="80" />
            </Array>
          </mxGeometry>
        </mxCell>
        <mxCell id="4ZDuckEpWmORl7aThJbx-36" value="4" style="edgeLabel;html=1;align=center;verticalAlign=middle;resizable=0;points=[];shadow=1;" vertex="1" connectable="0" parent="4ZDuckEpWmORl7aThJbx-10">
          <mxGeometry x="-0.108" y="-2" relative="1" as="geometry">
            <mxPoint as="offset" />
          </mxGeometry>
        </mxCell>
        <mxCell id="4ZDuckEpWmORl7aThJbx-12" value="" style="endArrow=classic;html=1;entryX=0.5;entryY=0;entryDx=0;entryDy=0;exitX=0.486;exitY=1.003;exitDx=0;exitDy=0;exitPerimeter=0;shadow=1;" edge="1" parent="WIyWlLk6GJQsqaUBKTNV-1" source="4ZDuckEpWmORl7aThJbx-3" target="4ZDuckEpWmORl7aThJbx-4">
          <mxGeometry width="50" height="50" relative="1" as="geometry">
            <mxPoint x="234" y="109" as="sourcePoint" />
            <mxPoint x="320" y="140" as="targetPoint" />
          </mxGeometry>
        </mxCell>
        <mxCell id="4ZDuckEpWmORl7aThJbx-35" value="3" style="edgeLabel;html=1;align=center;verticalAlign=middle;resizable=0;points=[];shadow=1;" vertex="1" connectable="0" parent="4ZDuckEpWmORl7aThJbx-12">
          <mxGeometry x="-0.2557" y="1" relative="1" as="geometry">
            <mxPoint as="offset" />
          </mxGeometry>
        </mxCell>
        <mxCell id="4ZDuckEpWmORl7aThJbx-13" value="" style="verticalLabelPosition=bottom;html=1;verticalAlign=top;align=center;strokeColor=none;fillColor=#00BEF2;shape=mxgraph.azure.storage_blob;shadow=1;" vertex="1" parent="WIyWlLk6GJQsqaUBKTNV-1">
          <mxGeometry x="390" y="50" width="70" height="60" as="geometry" />
        </mxCell>
        <mxCell id="4ZDuckEpWmORl7aThJbx-14" value="" style="endArrow=classic;html=1;exitX=1;exitY=0.5;exitDx=0;exitDy=0;entryX=0.044;entryY=0.47;entryDx=0;entryDy=0;entryPerimeter=0;shadow=1;" edge="1" parent="WIyWlLk6GJQsqaUBKTNV-1" target="4ZDuckEpWmORl7aThJbx-3">
          <mxGeometry width="50" height="50" relative="1" as="geometry">
            <mxPoint x="130" y="222.5" as="sourcePoint" />
            <mxPoint x="206.5" y="80" as="targetPoint" />
            <Array as="points">
              <mxPoint x="176.5" y="223" />
              <mxPoint x="176.5" y="80" />
            </Array>
          </mxGeometry>
        </mxCell>
        <mxCell id="4ZDuckEpWmORl7aThJbx-34" value="2" style="edgeLabel;html=1;align=center;verticalAlign=middle;resizable=0;points=[];shadow=1;" vertex="1" connectable="0" parent="4ZDuckEpWmORl7aThJbx-14">
          <mxGeometry x="0.1177" y="-1" relative="1" as="geometry">
            <mxPoint as="offset" />
          </mxGeometry>
        </mxCell>
        <mxCell id="4ZDuckEpWmORl7aThJbx-15" value="" style="aspect=fixed;html=1;points=[];align=center;image;fontSize=12;image=img/lib/azure2/analytics/Azure_Databricks.svg;shadow=1;" vertex="1" parent="WIyWlLk6GJQsqaUBKTNV-1">
          <mxGeometry x="660" y="50" width="60" height="68" as="geometry" />
        </mxCell>
        <mxCell id="4ZDuckEpWmORl7aThJbx-16" value="" style="aspect=fixed;html=1;points=[];align=center;image;fontSize=12;image=img/lib/azure2/analytics/Azure_Databricks.svg;shadow=1;" vertex="1" parent="WIyWlLk6GJQsqaUBKTNV-1">
          <mxGeometry x="660" y="150" width="60" height="68" as="geometry" />
        </mxCell>
        <mxCell id="4ZDuckEpWmORl7aThJbx-17" value="" style="aspect=fixed;html=1;points=[];align=center;image;fontSize=12;image=img/lib/azure2/analytics/Azure_Databricks.svg;shadow=1;" vertex="1" parent="WIyWlLk6GJQsqaUBKTNV-1">
          <mxGeometry x="660" y="250" width="60" height="68" as="geometry" />
        </mxCell>
        <mxCell id="4ZDuckEpWmORl7aThJbx-18" value="" style="aspect=fixed;html=1;points=[];align=center;image;fontSize=12;image=img/lib/azure2/analytics/Azure_Databricks.svg;shadow=1;" vertex="1" parent="WIyWlLk6GJQsqaUBKTNV-1">
          <mxGeometry x="660" y="350" width="60" height="68" as="geometry" />
        </mxCell>
        <mxCell id="4ZDuckEpWmORl7aThJbx-19" value="" style="aspect=fixed;html=1;points=[];align=center;image;fontSize=12;image=img/lib/azure2/iot/Event_Hubs.svg;shadow=1;" vertex="1" parent="WIyWlLk6GJQsqaUBKTNV-1">
          <mxGeometry x="500" y="200" width="67" height="60" as="geometry" />
        </mxCell>
        <mxCell id="4ZDuckEpWmORl7aThJbx-21" value="5" style="endArrow=classic;html=1;exitX=0.5;exitY=1;exitDx=0;exitDy=0;entryX=0.03;entryY=0.583;entryDx=0;entryDy=0;entryPerimeter=0;shadow=1;" edge="1" parent="WIyWlLk6GJQsqaUBKTNV-1" source="4ZDuckEpWmORl7aThJbx-4" target="4ZDuckEpWmORl7aThJbx-19">
          <mxGeometry width="50" height="50" relative="1" as="geometry">
            <mxPoint x="340" y="404.3" as="sourcePoint" />
            <mxPoint x="387" y="223" as="targetPoint" />
            <Array as="points">
              <mxPoint x="252" y="280" />
              <mxPoint x="440" y="280" />
              <mxPoint x="440" y="235" />
            </Array>
          </mxGeometry>
        </mxCell>
        <mxCell id="4ZDuckEpWmORl7aThJbx-23" value="" style="endArrow=classic;html=1;exitX=0.42;exitY=1.075;exitDx=0;exitDy=0;exitPerimeter=0;shadow=1;" edge="1" parent="WIyWlLk6GJQsqaUBKTNV-1" source="WIyWlLk6GJQsqaUBKTNV-11">
          <mxGeometry width="50" height="50" relative="1" as="geometry">
            <mxPoint x="550" y="96.60000000000002" as="sourcePoint" />
            <mxPoint x="542" y="200" as="targetPoint" />
            <Array as="points" />
          </mxGeometry>
        </mxCell>
        <mxCell id="4ZDuckEpWmORl7aThJbx-29" value="blob storage" style="text;html=1;align=center;verticalAlign=middle;resizable=0;points=[];autosize=1;strokeColor=none;shadow=1;" vertex="1" parent="WIyWlLk6GJQsqaUBKTNV-1">
          <mxGeometry x="390" y="120" width="80" height="20" as="geometry" />
        </mxCell>
        <mxCell id="4ZDuckEpWmORl7aThJbx-30" value="raw" style="text;html=1;align=center;verticalAlign=middle;resizable=0;points=[];autosize=1;strokeColor=none;shadow=1;" vertex="1" parent="WIyWlLk6GJQsqaUBKTNV-1">
          <mxGeometry x="725" y="60" width="30" height="20" as="geometry" />
        </mxCell>
        <mxCell id="4ZDuckEpWmORl7aThJbx-31" value="silver" style="text;html=1;align=center;verticalAlign=middle;resizable=0;points=[];autosize=1;strokeColor=none;shadow=1;" vertex="1" parent="WIyWlLk6GJQsqaUBKTNV-1">
          <mxGeometry x="730" y="170" width="40" height="20" as="geometry" />
        </mxCell>
        <mxCell id="4ZDuckEpWmORl7aThJbx-32" value="gold" style="text;html=1;align=center;verticalAlign=middle;resizable=0;points=[];autosize=1;strokeColor=none;shadow=1;" vertex="1" parent="WIyWlLk6GJQsqaUBKTNV-1">
          <mxGeometry x="730" y="260" width="40" height="20" as="geometry" />
        </mxCell>
        <mxCell id="4ZDuckEpWmORl7aThJbx-33" value="Rtpl" style="text;html=1;align=center;verticalAlign=middle;resizable=0;points=[];autosize=1;strokeColor=none;shadow=1;" vertex="1" parent="WIyWlLk6GJQsqaUBKTNV-1">
          <mxGeometry x="720" y="370" width="40" height="20" as="geometry" />
        </mxCell>
        <mxCell id="4ZDuckEpWmORl7aThJbx-39" value="" style="aspect=fixed;html=1;points=[];align=center;image;fontSize=12;image=img/lib/azure2/analytics/Azure_Databricks.svg;shadow=1;" vertex="1" parent="WIyWlLk6GJQsqaUBKTNV-1">
          <mxGeometry x="660" y="430" width="60" height="68" as="geometry" />
        </mxCell>
        <mxCell id="4ZDuckEpWmORl7aThJbx-41" value="DQ" style="text;html=1;align=center;verticalAlign=middle;resizable=0;points=[];autosize=1;strokeColor=none;shadow=1;" vertex="1" parent="WIyWlLk6GJQsqaUBKTNV-1">
          <mxGeometry x="735" y="440" width="30" height="20" as="geometry" />
        </mxCell>
        <mxCell id="4ZDuckEpWmORl7aThJbx-44" value="7" style="endArrow=classic;startArrow=classic;html=1;entryX=-0.033;entryY=0.462;entryDx=0;entryDy=0;entryPerimeter=0;shadow=1;" edge="1" parent="WIyWlLk6GJQsqaUBKTNV-1" target="4ZDuckEpWmORl7aThJbx-15">
          <mxGeometry width="50" height="50" relative="1" as="geometry">
            <mxPoint x="610" y="80" as="sourcePoint" />
            <mxPoint x="660" y="30" as="targetPoint" />
          </mxGeometry>
        </mxCell>
        <mxCell id="4ZDuckEpWmORl7aThJbx-45" value="8" style="endArrow=classic;startArrow=classic;html=1;entryX=-0.06;entryY=0.497;entryDx=0;entryDy=0;entryPerimeter=0;shadow=1;" edge="1" parent="WIyWlLk6GJQsqaUBKTNV-1" target="4ZDuckEpWmORl7aThJbx-16">
          <mxGeometry x="0.4214" width="50" height="50" relative="1" as="geometry">
            <mxPoint x="580" y="100" as="sourcePoint" />
            <mxPoint x="640" y="105" as="targetPoint" />
            <Array as="points">
              <mxPoint x="580" y="184" />
            </Array>
            <mxPoint as="offset" />
          </mxGeometry>
        </mxCell>
        <mxCell id="4ZDuckEpWmORl7aThJbx-47" value="" style="endArrow=classic;startArrow=classic;html=1;exitX=-0.06;exitY=0.568;exitDx=0;exitDy=0;exitPerimeter=0;shadow=1;" edge="1" parent="WIyWlLk6GJQsqaUBKTNV-1" source="4ZDuckEpWmORl7aThJbx-17">
          <mxGeometry width="50" height="50" relative="1" as="geometry">
            <mxPoint x="390" y="310" as="sourcePoint" />
            <mxPoint x="580" y="100" as="targetPoint" />
            <Array as="points">
              <mxPoint x="580" y="289" />
            </Array>
          </mxGeometry>
        </mxCell>
        <mxCell id="4ZDuckEpWmORl7aThJbx-50" value="9" style="edgeLabel;html=1;align=center;verticalAlign=middle;resizable=0;points=[];shadow=1;" vertex="1" connectable="0" parent="4ZDuckEpWmORl7aThJbx-47">
          <mxGeometry x="-0.5961" y="1" relative="1" as="geometry">
            <mxPoint as="offset" />
          </mxGeometry>
        </mxCell>
        <mxCell id="4ZDuckEpWmORl7aThJbx-48" value="" style="endArrow=classic;startArrow=classic;html=1;entryX=-0.02;entryY=0.556;entryDx=0;entryDy=0;entryPerimeter=0;shadow=1;" edge="1" parent="WIyWlLk6GJQsqaUBKTNV-1" target="4ZDuckEpWmORl7aThJbx-18">
          <mxGeometry width="50" height="50" relative="1" as="geometry">
            <mxPoint x="580" y="100" as="sourcePoint" />
            <mxPoint x="440" y="260" as="targetPoint" />
            <Array as="points">
              <mxPoint x="580" y="388" />
            </Array>
          </mxGeometry>
        </mxCell>
        <mxCell id="4ZDuckEpWmORl7aThJbx-51" value="11" style="edgeLabel;html=1;align=center;verticalAlign=middle;resizable=0;points=[];shadow=1;" vertex="1" connectable="0" parent="4ZDuckEpWmORl7aThJbx-48">
          <mxGeometry x="0.7274" y="-1" relative="1" as="geometry">
            <mxPoint as="offset" />
          </mxGeometry>
        </mxCell>
        <mxCell id="4ZDuckEpWmORl7aThJbx-49" value="" style="endArrow=classic;startArrow=classic;html=1;entryX=-0.02;entryY=0.474;entryDx=0;entryDy=0;entryPerimeter=0;shadow=1;" edge="1" parent="WIyWlLk6GJQsqaUBKTNV-1" target="4ZDuckEpWmORl7aThJbx-39">
          <mxGeometry width="50" height="50" relative="1" as="geometry">
            <mxPoint x="580" y="100" as="sourcePoint" />
            <mxPoint x="440" y="260" as="targetPoint" />
            <Array as="points">
              <mxPoint x="580" y="462" />
            </Array>
          </mxGeometry>
        </mxCell>
        <mxCell id="4ZDuckEpWmORl7aThJbx-52" value="11" style="edgeLabel;html=1;align=center;verticalAlign=middle;resizable=0;points=[];shadow=1;" vertex="1" connectable="0" parent="4ZDuckEpWmORl7aThJbx-49">
          <mxGeometry x="0.7641" y="-1" relative="1" as="geometry">
            <mxPoint as="offset" />
          </mxGeometry>
        </mxCell>
        <mxCell id="4ZDuckEpWmORl7aThJbx-53" value="6" style="endArrow=classic;startArrow=classic;html=1;entryX=0;entryY=0.5;entryDx=0;entryDy=0;exitX=1;exitY=0.5;exitDx=0;exitDy=0;exitPerimeter=0;shadow=1;" edge="1" parent="WIyWlLk6GJQsqaUBKTNV-1" source="4ZDuckEpWmORl7aThJbx-13" target="WIyWlLk6GJQsqaUBKTNV-11">
          <mxGeometry width="50" height="50" relative="1" as="geometry">
            <mxPoint x="390" y="310" as="sourcePoint" />
            <mxPoint x="440" y="260" as="targetPoint" />
            <Array as="points">
              <mxPoint x="480" y="80" />
            </Array>
          </mxGeometry>
        </mxCell>
      </root>
    </mxGraphModel>
  </diagram>
</mxfile>
